{
  "accessors": [
    {
      "bufferView": 2,
      "componentType": 5126,
      "count": 2694,
      "max": [
        0.811927318572998,
        0.2512741982936859,
        0.8499200940132141
      ],
      "min": [
        -0.811927318572998,
        -0.2512741982936859,
        -0.706214189529419
      ],
      "type": "VEC3"
    },
    {
      "bufferView": 2,
      "byteOffset": 32328,
      "componentType": 5126,
      "count": 2694,
      "max": [
        0.9982943534851074,
        1.0,
        0.955595076084137
      ],
      "min": [
        -0.9982943534851074,
        -1.0,
        -0.9966316819190979
      ],
      "type": "VEC3"
    },
    {
      "bufferView": 1,
      "componentType": 5126,
      "count": 2694,
      "max": [
        0.9755284190177917,
        0.9865414500236511
      ],
      "min": [
        0.02447173371911049,
        0.02342335507273674
      ],
      "type": "VEC2"
    },
    {
      "bufferView": 0,
      "componentType": 5125,
      "count": 14880,
      "type": "SCALAR"
    }
  ],
  "asset": {
    "extras": {
      "author": "vodkaavocado (https://sketchfab.com/vodkaavocado)",
      "license": "CC-BY-4.0 (http://creativecommons.org/licenses/by/4.0/)",
      "source": "https://sketchfab.com/3d-models/shining-star-low-poly-72e462e4946b4bbb9a6c18e876f04784",
      "title": "Shining star low poly"
    },
    "generator": "Sketchfab-13.74.0",
    "version": "2.0"
  },
  "bufferViews": [
    {
      "buffer": 0,
      "byteLength": 59520,
      "name": "floatBufferViews",
      "target": 34963
    },
    {
      "buffer": 0,
      "byteLength": 21552,
      "byteOffset": 59520,
      "byteStride": 8,
      "name": "floatBufferViews",
      "target": 34962
    },
    {
      "buffer": 0,
      "byteLength": 64656,
      "byteOffset": 81072,
      "byteStride": 12,
      "name": "floatBufferViews",
      "target": 34962
    }
  ],
  "buffers": [
    {
      "byteLength": 145728,
      "uri": "scene.bin"
    }
  ],
  "materials": [
    {
      "doubleSided": true,
      "emissiveFactor": [
        0.941669,
        1.0,
        0.13342
      ],
      "name": "Material"
    }
  ],
  "meshes": [
    {
      "name": "Object_0",
      "primitives": [
        {
          "attributes": {
            "NORMAL": 1,
            "POSITION": 0,
            "TEXCOORD_0": 2
          },
          "indices": 3,
          "material": 0,
          "mode": 4
        }
      ]
    }
  ],
  "nodes": [
    {
      "children": [
        1
      ],
      "matrix": [
        0.9184960722923279,
        -2.0394709749734292e-16,
        -5.624166620223196e-17,
        0.0,
        -2.0394709749734294e-16,
        -0.9184960722923279,
        0.0,
        0.0,
        -5.624166620223191e-17,
        0.0,
        -0.9184960722923279,
        0.0,
        0.0,
        0.0,
        0.0,
        1.0
      ],
      "name": "Sketchfab_model"
    },
    {
      "children": [
        2
      ],
      "name": "root"
    },
    {
      "children": [
        3
      ],
      "matrix": [
        1.0,
        0.0,
        0.0,
        0.0,
        0.0,
        2.220446049250313e-16,
        1.0,
        0.0,
        0.0,
        -1.0,
        2.220446049250313e-16,
        0.0,
        0.0,
        0.0,
        0.0,
        1.0
      ],
      "name": "GLTF_SceneRootNode"
    },
    {
      "children": [
        4
      ],
      "name": "Circle_0"
    },
    {
      "mesh": 0,
      "name": "Object_4"
    }
  ],
  "scene": 0,
  "scenes": [
    {
      "name": "Sketchfab_Scene",
      "nodes": [
        0
      ]
    }
  ]
}
